<mxfile host="app.diagrams.net" modified="2023-08-11T07:01:52.048Z" agent="Mozilla/5.0 (Windows NT 10.0; Win64; x64) AppleWebKit/537.36 (KHTML, like Gecko) Chrome/114.0.0.0 YaBrowser/23.7.1.1140 Yowser/2.5 Safari/537.36" etag="I3Q_24EVUZ4JC5jnsfFk" version="21.6.8" type="github">
  <diagram id="3228e29e-7158-1315-38df-8450db1d8a1d" name="Page-1">
    <mxGraphModel dx="830" dy="519" grid="1" gridSize="10" guides="1" tooltips="1" connect="1" arrows="1" fold="1" page="1" pageScale="1" pageWidth="1169" pageHeight="827" background="none" math="0" shadow="0">
      <root>
        <mxCell id="0" />
        <mxCell id="1" parent="0" />
        <mxCell id="21541" value="" style="ellipse;whiteSpace=wrap;rotation=-45;fillColor=#F08705;opacity=60;strokeColor=none;html=1;" parent="1" vertex="1">
          <mxGeometry x="470" y="373.66" width="378.08" height="165.2" as="geometry" />
        </mxCell>
        <mxCell id="21542" value="" style="ellipse;whiteSpace=wrap;rotation=135;fillColor=#E85642;opacity=60;strokeColor=none;html=1;" parent="1" vertex="1">
          <mxGeometry x="780" y="376.69" width="130.95" height="135.44" as="geometry" />
        </mxCell>
        <mxCell id="21543" value="" style="ellipse;whiteSpace=wrap;fillColor=#2F5B7C;opacity=60;strokeColor=none;html=1;rotation=30;" parent="1" vertex="1">
          <mxGeometry x="858.08" y="422.72" width="189.25" height="90" as="geometry" />
        </mxCell>
        <mxCell id="21544" value="" style="ellipse;whiteSpace=wrap;fillColor=#12AAB5;opacity=60;strokeColor=none;rotation=-15;html=1;" parent="1" vertex="1">
          <mxGeometry x="622.28" y="490" width="275.22" height="117.72" as="geometry" />
        </mxCell>
        <mxCell id="21545" value="" style="ellipse;whiteSpace=wrap;rotation=-195;fillColor=#736CA8;opacity=60;strokeColor=none;html=1;" parent="1" vertex="1">
          <mxGeometry x="820" y="327.28" width="135.68" height="57.72" as="geometry" />
        </mxCell>
        <mxCell id="21549" value="Power BI" style="text;spacingTop=-5;fontStyle=0;fontSize=40;html=1;fontColor=#FFFFFF;rotation=316;fontFamily=Helvetica;" parent="1" vertex="1">
          <mxGeometry x="592.2799163537603" y="474.40657993931944" width="30" height="20" as="geometry" />
        </mxCell>
        <mxCell id="21550" value="Notion" style="text;spacingTop=-5;fontStyle=0;fontSize=20;html=1;fontColor=#FFFFFF;rotation=35;spacingRight=0;" parent="1" vertex="1">
          <mxGeometry x="925.3100000000001" y="446.26" width="30.37" height="20" as="geometry" />
        </mxCell>
        <mxCell id="21557" value="Excel" style="text;spacingTop=-5;fontStyle=0;fontSize=30;html=1;fontColor=#FFFFFF;rotation=338;" parent="1" vertex="1">
          <mxGeometry x="720" y="538.8590955831165" width="30" height="20" as="geometry" />
        </mxCell>
        <mxCell id="21558" value="Draw.io" style="text;spacingTop=-5;fontStyle=0;fontSize=15;html=1;fontColor=#FFFFFF;rotation=342;spacing=2;spacingLeft=-3;spacingBottom=2;" parent="1" vertex="1">
          <mxGeometry x="867.5014241751807" y="346.1391419126428" width="30" height="20" as="geometry" />
        </mxCell>
        <mxCell id="21559" value="Power Point" style="text;spacingTop=-5;fontStyle=0;fontSize=20;html=1;fontColor=#FFFFFF;" parent="1" vertex="1">
          <mxGeometry x="789.9983870339199" y="434.410347970285" width="30" height="20" as="geometry" />
        </mxCell>
      </root>
    </mxGraphModel>
  </diagram>
</mxfile>
